# xmcd CD database file
#
# Track frame offsets:
#	150
#	23415
#	41937
#
# Disc length: 868 seconds
#
# Revision: 0
# Processed by: cddbd v1.5.1PL2 Copyright (c) Steve Scherf et al.
# Submitted via: CDex 1.51
#
DISCID=1b036203
DTITLE=徳永英明 - シングル「Rainy Blue」
DYEAR=1997
DGENRE=JPop
TTITLE0=Rainy Blue 1997 Track
TTITLE1=奇跡のようなめぐり合い
TTITLE2=Rainy Blue 1997 Track No Vocal Edirion
EXTD=YEAR: 1997
EXTT0=
EXTT1=
EXTT2=
PLAYORDER=
